# xmcd
#
# Track frame offsets: 
#        150
#        22550
#        49150
#        82584
#        105882
#        128965
#        146712
#        171606
#        205911
#
# Disc length: 3045 seconds
#
# Revision: 0
# Processed by: cddbd v1.5.2PL0 Copyright (c) Steve Scherf et al.
# Submitted via: ExactAudioCopy v1.3
#
DISCID=6c0be309
DTITLE=Big Mike and The Booty Papas - Risky Bid'ness
DYEAR=2015
DGENRE=Funky Blues
TTITLE0=Risky Bid'ness
TTITLE1=Questions Unanswered
TTITLE2=I'll Take Care Of You
TTITLE3=Slow Down
TTITLE4=Gate 39
TTITLE5=Road Back To You
TTITLE6=I Can't Wait
TTITLE7=Rather Go Blind
TTITLE8=Hit It Freddie
EXTD=
EXTT0=
EXTT1=
EXTT2=
EXTT3=
EXTT4=
EXTT5=
EXTT6=
EXTT7=
EXTT8=
PLAYORDER=
